<?xml version="1.0" encoding="UTF-8" ?>
<!DOCTYPE svg PUBLIC "-//W3C//DTD SVG 1.1//EN" "http://www.w3.org/Graphics/SVG/1.1/DTD/svg11.dtd">
<svg width="512pt" height="512pt" viewBox="0 0 512 512" version="1.1" xmlns="http://www.w3.org/2000/svg">
<g id="#0072ffff">
<path fill="#0072ff" opacity="1.00" d=" M 119.43 64.49 C 124.93 63.91 130.47 63.99 136.00 64.00 C 218.34 64.00 300.67 64.00 383.01 64.00 C 405.10 63.96 427.10 71.77 444.18 85.79 C 466.31 103.63 479.84 131.56 479.98 160.00 C 480.02 218.33 480.00 276.67 479.99 335.00 C 480.02 359.94 469.98 384.70 452.54 402.53 C 434.58 421.19 408.90 432.04 383.01 431.99 C 323.01 432.00 263.00 432.01 203.00 431.99 C 180.03 431.18 156.85 439.34 139.74 454.75 C 132.81 461.14 126.01 467.69 119.13 474.15 C 115.93 477.14 112.75 481.02 108.01 481.26 C 102.11 481.90 96.28 476.99 96.09 471.03 C 95.72 461.36 96.36 451.68 95.78 442.02 C 94.89 431.73 88.06 422.69 79.06 417.92 C 50.59 401.19 32.13 369.03 32.03 336.01 C 31.96 277.67 32.01 219.33 32.01 160.99 C 31.96 138.90 39.77 116.90 53.79 99.83 C 69.84 79.96 93.99 66.91 119.43 64.49 M 138.31 177.39 C 132.13 178.57 127.65 184.69 128.00 190.91 C 128.07 235.61 127.85 280.32 128.12 325.02 C 129.30 341.05 157.54 341.57 159.78 325.88 C 160.40 312.27 159.67 298.60 160.12 284.98 C 160.49 278.49 166.44 273.03 172.92 273.09 C 180.30 272.99 187.70 272.99 195.08 273.09 C 201.56 273.04 207.49 278.49 207.88 284.98 C 208.33 298.61 207.61 312.27 208.22 325.89 C 210.47 341.56 238.70 341.06 239.88 325.02 C 240.16 280.32 239.92 235.61 240.00 190.91 C 240.30 184.97 236.27 179.09 230.46 177.58 C 226.75 176.76 222.88 176.86 219.12 177.26 C 212.98 178.01 208.03 183.74 208.05 189.92 C 207.87 202.64 208.13 215.37 207.95 228.09 C 207.99 234.93 201.92 240.97 195.08 240.91 C 187.70 241.01 180.31 241.01 172.93 240.91 C 166.09 240.98 160.01 234.92 160.05 228.09 C 159.87 215.37 160.13 202.64 159.95 189.92 C 159.95 183.75 155.02 178.02 148.88 177.26 C 145.37 176.86 141.79 176.83 138.31 177.39 M 282.31 177.39 C 276.13 178.57 271.65 184.69 272.00 190.91 C 272.11 198.24 271.72 205.58 272.21 212.89 C 274.39 228.23 301.63 228.26 303.78 212.88 C 304.28 205.58 303.89 198.23 304.00 190.91 C 304.33 184.70 299.87 178.58 293.69 177.40 C 289.94 176.80 286.06 176.80 282.31 177.39 M 339.35 177.45 C 332.77 178.63 328.12 185.42 329.02 191.98 C 331.13 220.61 333.00 249.26 335.29 277.87 C 336.13 285.86 344.58 290.28 352.00 289.19 C 359.42 290.27 367.88 285.86 368.71 277.86 C 370.97 249.26 372.81 220.61 374.90 191.99 C 375.99 184.51 369.69 177.03 362.06 177.17 C 354.50 177.23 346.88 176.75 339.35 177.45 M 282.31 241.40 C 276.14 242.58 271.65 248.70 272.00 254.91 C 272.07 278.28 271.84 301.66 272.12 325.02 C 273.32 341.44 302.69 341.45 303.88 325.01 C 304.16 301.65 303.92 278.27 304.00 254.91 C 304.33 248.70 299.87 242.57 293.69 241.40 C 289.94 240.81 286.06 240.81 282.31 241.40 M 346.30 305.39 C 331.67 308.46 332.09 334.70 347.11 336.82 C 354.43 338.02 363.97 336.88 366.97 328.93 C 368.77 322.24 369.23 313.48 363.60 308.39 C 358.95 304.16 352.09 304.71 346.30 305.39 Z" />
</g>
</svg>
