<?xml version="1.0" encoding="UTF-8" ?>
<!DOCTYPE svg PUBLIC "-//W3C//DTD SVG 1.1//EN" "http://www.w3.org/Graphics/SVG/1.1/DTD/svg11.dtd">
<svg width="1408pt" height="752pt" viewBox="0 0 1408 752" version="1.1" xmlns="http://www.w3.org/2000/svg">
<g id="#fefefeff">
</g>
<g id="#101110ff">
<path fill="#000000" opacity="1.00" d=" M 614.00 220.03 C 646.27 212.13 680.42 206.94 713.24 214.66 C 728.02 218.71 743.20 226.06 751.45 239.57 C 758.70 251.36 756.97 266.69 750.23 278.29 C 743.13 292.11 732.07 303.33 720.47 313.44 C 692.35 335.98 661.14 354.76 627.74 368.35 C 645.40 379.13 661.50 392.28 676.50 406.49 C 699.90 428.18 724.97 448.84 754.07 462.39 C 788.07 448.57 822.40 435.49 857.34 424.24 C 897.48 411.23 938.70 400.23 981.02 397.94 C 995.02 397.22 1009.59 397.75 1022.61 403.47 C 1027.76 405.61 1031.79 410.97 1031.53 416.66 C 1030.75 423.15 1026.40 428.45 1022.08 433.06 C 1005.22 449.96 983.13 460.36 961.28 469.21 C 905.27 492.64 841.72 499.13 782.59 484.43 C 769.54 481.27 757.27 475.65 744.88 470.63 C 681.79 497.00 619.28 525.30 559.32 558.32 C 521.69 579.89 482.35 600.70 452.48 632.86 C 456.05 632.19 459.69 631.73 463.34 632.07 C 456.86 633.73 451.20 637.10 446.07 641.31 C 445.10 639.49 444.00 637.46 445.53 635.59 C 452.30 624.36 462.80 616.07 472.70 607.71 C 489.70 594.71 507.76 583.18 526.04 572.09 C 594.35 532.02 666.66 499.37 739.39 468.26 C 722.68 459.26 706.30 449.48 691.48 437.56 C 669.98 421.20 652.10 400.57 630.07 384.86 C 625.13 381.00 619.58 378.03 614.56 374.28 C 612.88 374.56 611.21 374.85 609.55 375.15 C 595.87 404.74 580.56 433.58 563.23 461.21 C 555.81 472.92 549.40 485.25 541.85 496.87 C 538.86 501.95 528.51 500.51 528.86 494.01 C 530.40 482.41 535.36 471.63 539.95 460.98 C 551.55 434.14 564.24 407.79 577.52 381.75 C 571.12 381.65 564.37 381.55 558.61 378.39 C 554.94 376.46 552.38 371.97 553.70 367.83 C 555.06 362.96 559.72 360.10 563.97 357.95 C 572.57 353.60 582.50 354.18 591.85 354.42 C 603.57 333.30 615.76 312.39 629.69 292.64 C 634.91 285.06 640.17 277.28 647.21 271.25 C 648.85 269.56 651.32 269.67 653.21 270.90 C 654.76 274.68 652.32 278.58 651.15 282.14 C 639.51 308.60 628.39 335.29 616.10 361.46 C 618.02 362.56 619.95 363.67 621.87 364.80 C 651.03 353.51 678.42 337.49 702.46 317.48 C 711.44 310.57 719.46 302.46 726.88 293.92 C 738.01 280.11 747.06 261.44 740.47 243.61 C 732.97 228.68 716.23 221.09 700.41 218.59 C 665.30 212.72 629.55 219.82 595.87 229.85 C 533.07 250.15 474.33 283.88 426.60 329.63 C 402.63 353.38 380.44 380.65 370.27 413.34 C 363.49 433.31 362.62 456.29 372.49 475.39 C 379.16 486.89 389.88 497.13 403.33 499.65 C 421.79 502.95 440.79 495.81 454.65 483.70 C 456.32 482.38 457.80 480.22 460.22 480.67 C 445.42 503.41 412.18 514.06 388.06 499.90 C 370.65 490.06 360.30 470.27 359.48 450.60 C 358.04 425.03 367.85 400.31 380.71 378.68 C 404.96 339.30 440.62 308.48 478.19 282.22 C 519.71 254.35 565.68 232.99 614.00 220.03 M 603.08 355.98 C 605.77 357.30 608.52 358.52 611.30 359.68 C 622.91 335.65 634.35 311.31 643.13 286.07 C 627.93 308.25 615.02 331.93 603.08 355.98 M 564.84 364.86 C 561.60 366.51 560.84 371.87 564.32 373.66 C 569.29 376.38 575.28 375.10 580.67 374.72 C 582.97 370.92 584.96 366.95 586.91 362.96 C 579.59 362.40 571.56 361.17 564.84 364.86 M 597.20 366.34 C 596.47 368.08 595.75 369.83 595.05 371.58 C 598.31 371.28 601.55 370.70 604.69 369.75 C 602.28 368.43 599.77 367.30 597.20 366.34 M 590.54 380.34 C 578.68 403.54 567.59 427.12 556.89 450.87 C 553.67 458.52 550.16 466.08 547.69 474.01 C 568.74 443.52 588.41 411.78 602.81 377.54 C 598.71 378.46 594.64 379.46 590.54 380.34 M 903.22 415.29 C 854.16 428.07 806.49 445.60 759.58 464.68 C 774.58 472.49 791.18 476.67 807.57 480.45 C 846.24 488.11 886.59 485.52 924.59 475.49 C 941.59 471.35 958.17 465.42 973.94 457.82 C 984.64 453.02 995.18 447.64 1004.55 440.53 C 1012.26 435.11 1019.91 428.74 1023.97 420.02 C 1025.55 416.98 1025.41 412.74 1022.32 410.72 C 1012.83 403.60 1000.36 403.40 989.00 403.29 C 959.95 402.52 931.30 408.51 903.22 415.29 Z" />
</g>
<g id="#0c0c0cff">
<path fill="#000000" opacity="1.00" d=" M 898.42 240.44 C 902.01 237.89 906.50 236.09 910.95 236.98 C 914.76 238.01 916.15 242.47 915.94 246.01 C 915.64 255.25 910.45 263.24 905.88 270.93 C 890.68 294.46 870.20 313.83 850.48 333.48 C 847.04 337.08 843.06 340.34 840.93 344.96 C 835.94 355.10 831.20 365.38 827.36 376.02 C 836.94 365.71 845.24 354.22 855.61 344.63 C 862.49 337.86 870.18 330.75 880.04 329.08 C 885.33 327.98 890.78 332.48 890.18 337.99 C 888.91 350.91 880.48 362.00 879.12 374.90 C 879.32 379.42 884.77 377.68 887.27 376.21 C 898.63 369.78 908.60 360.99 917.26 351.27 C 927.27 338.92 939.41 325.85 956.00 323.63 C 963.08 322.47 969.14 327.18 972.35 333.09 C 974.99 329.73 978.52 324.80 983.43 326.45 C 987.24 328.11 985.97 332.66 984.53 335.57 C 979.33 346.06 971.76 355.65 969.34 367.32 C 968.81 370.48 967.76 374.32 970.24 376.96 C 974.32 378.76 978.60 376.17 982.04 374.08 C 993.32 366.61 1002.92 356.94 1012.05 347.03 C 1014.65 344.22 1016.99 341.12 1018.48 337.57 C 1025.66 321.03 1034.05 305.00 1043.66 289.75 C 1033.10 291.20 1022.55 292.71 1011.99 294.13 C 1009.94 294.34 1006.31 294.54 1006.31 291.64 C 1005.50 288.41 1009.01 286.98 1011.57 286.61 C 1023.85 284.32 1036.28 282.94 1048.70 281.66 C 1056.81 267.98 1066.51 255.01 1078.38 244.35 C 1082.82 240.51 1088.24 235.70 1094.61 237.44 C 1098.73 239.98 1098.90 245.68 1098.17 249.96 C 1096.23 260.40 1090.50 269.56 1085.47 278.75 C 1100.78 278.38 1116.34 277.12 1131.41 280.59 C 1133.21 280.85 1135.62 282.90 1133.53 284.51 C 1131.37 285.11 1129.11 284.81 1126.94 284.70 C 1111.84 283.11 1096.40 283.00 1081.40 285.17 C 1068.06 303.90 1052.78 321.31 1035.62 336.64 C 1032.49 339.38 1029.66 342.65 1028.84 346.86 C 1026.31 356.66 1021.16 366.81 1023.86 377.08 C 1027.49 381.95 1034.69 379.26 1039.34 377.37 C 1057.52 368.65 1071.81 353.82 1085.47 339.34 C 1086.27 338.42 1087.56 338.39 1088.67 338.10 C 1089.52 340.16 1090.51 342.73 1088.46 344.45 C 1078.03 356.66 1066.35 367.95 1053.18 377.16 C 1044.34 382.87 1034.33 388.79 1023.38 387.54 C 1017.54 387.03 1012.38 382.64 1011.23 376.85 C 1009.74 369.31 1011.25 361.55 1012.86 354.16 C 1001.85 365.82 990.58 377.89 975.88 384.91 C 969.36 387.90 959.89 386.31 956.99 379.06 C 954.77 372.63 956.53 365.63 958.25 359.29 C 949.75 369.37 940.85 379.71 928.96 385.87 C 923.50 388.70 915.86 389.60 911.26 384.73 C 906.73 379.44 908.71 371.98 910.02 365.87 C 902.69 373.42 894.41 380.22 884.88 384.80 C 880.32 386.78 874.65 387.37 870.21 384.79 C 866.36 382.32 864.99 377.44 865.24 373.09 C 866.13 360.93 873.89 350.67 875.92 338.83 C 870.81 339.28 867.15 343.31 863.34 346.31 C 845.30 362.83 830.61 382.63 816.51 402.48 C 812.52 406.98 804.10 403.13 805.68 396.99 C 808.07 385.27 813.34 374.37 818.01 363.42 C 808.31 373.70 798.03 383.87 785.41 390.52 C 779.64 393.57 771.48 393.31 767.48 387.57 C 763.05 380.95 765.65 372.66 767.12 365.52 C 759.39 375.25 750.55 384.27 740.22 391.24 C 734.80 394.71 726.96 396.93 721.43 392.51 C 716.37 388.45 716.45 381.04 718.33 375.38 C 722.49 363.17 729.93 352.12 739.45 343.44 C 746.83 336.02 756.37 329.90 767.08 329.39 C 773.35 328.96 779.71 332.82 781.64 338.91 C 783.94 335.18 787.19 330.02 792.37 331.55 C 796.63 332.42 796.53 337.69 794.64 340.67 C 788.62 350.94 782.47 361.30 778.74 372.67 C 777.88 376.01 776.43 380.16 779.00 383.12 C 784.74 385.03 789.76 380.13 794.21 377.21 C 805.62 368.12 817.19 358.56 825.19 346.21 C 835.86 324.70 847.38 303.58 860.39 283.39 C 871.19 267.59 882.50 251.51 898.42 240.44 M 902.09 249.11 C 888.99 261.36 878.80 276.31 869.49 291.54 C 862.84 302.62 856.17 313.73 850.76 325.48 C 859.44 317.59 867.25 308.79 875.03 300.02 C 886.63 287.37 898.01 274.14 905.59 258.61 C 907.36 254.70 909.46 250.37 907.93 246.03 C 905.77 246.61 903.68 247.50 902.09 249.11 M 1083.50 252.51 C 1076.11 260.77 1069.88 270.00 1064.13 279.46 C 1068.66 279.41 1073.20 279.30 1077.73 279.03 C 1084.19 269.06 1091.77 258.34 1091.64 245.98 C 1088.22 247.12 1085.88 249.97 1083.50 252.51 M 1059.06 286.84 C 1051.02 299.84 1044.01 313.43 1037.19 327.10 C 1044.90 320.50 1051.22 312.47 1058.05 305.00 C 1063.34 298.51 1069.38 292.52 1073.58 285.21 C 1068.73 285.64 1063.86 285.99 1059.06 286.84 M 951.30 334.31 C 938.70 342.46 929.43 355.27 924.16 369.19 C 923.40 372.04 921.26 377.17 925.12 378.52 C 931.91 377.49 937.08 372.41 942.16 368.19 C 952.36 358.87 961.81 348.48 969.04 336.66 C 965.49 330.53 956.62 330.75 951.30 334.31 M 755.52 344.50 C 746.02 351.89 738.89 361.94 733.68 372.71 C 732.07 376.46 730.23 380.88 732.31 384.83 C 734.90 384.70 737.51 384.18 739.70 382.69 C 751.96 374.94 761.77 364.04 771.11 353.10 C 773.41 349.75 776.52 346.86 778.09 343.05 C 777.02 339.57 773.23 337.77 769.87 337.35 C 764.25 337.32 759.70 341.21 755.52 344.50 Z" />
</g>
<g id="#f4f4f2ff">
</g>
<g id="#f3f3f2ff">
</g>
<g id="#f1f1efff">
</g>
<g id="#efefedff">
</g>
<g id="#f8f8f6ff">
</g>
<g id="#f7f7f6ff">
</g>
<g id="#f2f2f0ff">
</g>
<g id="#e3e2e0ff">
</g>
<g id="#f1f2efff">
</g>
<g id="#fcfcfbff">
</g>
</svg>
